<svg id="Layer_1" data-name="Layer 1" xmlns="http://www.w3.org/2000/svg" xmlns:xlink="http://www.w3.org/1999/xlink" viewBox="0 0 293.46 293.46"><defs><style>.cls-1{opacity:0.5;fill:url(#linear-gradient);}.cls-2{fill:#5e200c;}.cls-10,.cls-11,.cls-12,.cls-3,.cls-4,.cls-5,.cls-6,.cls-7,.cls-8,.cls-9{fill:none;stroke:#fff;stroke-linecap:round;stroke-width:0.4px;}.cls-10,.cls-11,.cls-12,.cls-13,.cls-3,.cls-4,.cls-5,.cls-6,.cls-7,.cls-8,.cls-9{stroke-miterlimit:10;}.cls-4{stroke-dasharray:3.41 2.27;}.cls-5{stroke-dasharray:3.03 2.02;}.cls-6{stroke-dasharray:2.52 1.68;}.cls-7{stroke-dasharray:2.99 1.99;}.cls-8{stroke-dasharray:3.03 2.02;}.cls-9{stroke-dasharray:3.06 2.04;}.cls-10{stroke-dasharray:2.98 1.99;}.cls-11{stroke-dasharray:3.02 2.02;}.cls-12{stroke-dasharray:2.96 1.97;}.cls-13{font-size:66.51px;fill:#fff;stroke:#0f4420;stroke-width:0.5px;font-family:DyerArtsandCrafts, Dyer Arts and Crafts;letter-spacing:0.01em;opacity:0.85;}</style><linearGradient id="linear-gradient" x1="138.6" y1="12.08" x2="149" y2="184.33" gradientUnits="userSpaceOnUse"><stop offset="0.02" stop-color="#fff"/><stop offset="0.9"/></linearGradient></defs><title>logo-med-cirkel-1</title><circle class="cls-1" cx="146.73" cy="146.73" r="146.73"/><path class="cls-2" d="M207,47.24c9.11-2.17,23,.61,33.42,6.92-.46,6.81-.26,25.36,9.17,42.76A74.7,74.7,0,0,0,274.7,124c4.55,15,3.81,30.72.11,46.82a66.86,66.86,0,0,0-24.21,26.65,67.7,67.7,0,0,0-5.36,43.82c-9.35,8.39-19.68,11.54-31.05,9.14-1.7-3.34-20-37.78-56.6-42-20-2.31-35.57,5.53-39.95,7.81C95.55,227.75,86.44,247.1,83.92,253a60.88,60.88,0,0,1-35-17A73.89,73.89,0,0,0,53,191.9a73.66,73.66,0,0,0-20.7-37,70.63,70.63,0,0,0,19.76-38.23,70.69,70.69,0,0,0-7-43.77c9-11.41,20.72-17.41,33.89-20.29C90.41,76.34,113.71,92,139.33,92.88,168.56,93.91,195.93,75.6,207,47.24Z" transform="translate(-3.54 -7)"/><path class="cls-3" d="M212.44,61.4c.21-.48.41-.94.59-1.37a12,12,0,0,1,1.47-.31" transform="translate(-3.54 -7)"/><path class="cls-4" d="M216.76,59.58a25.85,25.85,0,0,1,9.81,2.63" transform="translate(-3.54 -7)"/><path class="cls-3" d="M227.6,62.69l1.35.67c0,.45-.06,1-.08,1.49" transform="translate(-3.54 -7)"/><path class="cls-5" d="M228.81,66.87a72.22,72.22,0,0,0,33.39,62.27q5.78,19,2,35.37a72.21,72.21,0,0,0-22.33,26,73,73,0,0,0-7.28,40.43" transform="translate(-3.54 -7)"/><path class="cls-3" d="M234.69,231.9c.06.55.13,1,.19,1.49-.38.33-.76.66-1.14,1" transform="translate(-3.54 -7)"/><path class="cls-6" d="M232.41,235.4c-3.42,2.53-7,4.12-10.87,3.87" transform="translate(-3.54 -7)"/><path class="cls-3" d="M220.7,239.19a12.67,12.67,0,0,1-1.47-.28l-.78-1.28" transform="translate(-3.54 -7)"/><path class="cls-7" d="M217.39,236a83.64,83.64,0,0,0-30.73-28.67c-23-12.28-54.67-14.58-80,1.08a76.11,76.11,0,0,0-25.46,26.45" transform="translate(-3.54 -7)"/><path class="cls-3" d="M80.7,235.67,80,237c-.51.06-1,.11-1.5.13" transform="translate(-3.54 -7)"/><path class="cls-8" d="M76.45,237.13A20.63,20.63,0,0,1,63.58,232" transform="translate(-3.54 -7)"/><path class="cls-3" d="M62.82,231.28c-.37-.33-.73-.68-1.08-1q.24-.63.51-1.41" transform="translate(-3.54 -7)"/><path class="cls-9" d="M62.91,226.91c2.82-8.63,6.8-26,.55-45.76a72.81,72.81,0,0,0-14-25.17" transform="translate(-3.54 -7)"/><path class="cls-3" d="M48.8,155.2l-1-1.11.85-1.24" transform="translate(-3.54 -7)"/><path class="cls-10" d="M49.73,151.19A83,83,0,0,0,62.19,116a82.84,82.84,0,0,0-3.77-35.48" transform="translate(-3.54 -7)"/><path class="cls-3" d="M58.1,79.6c-.17-.5-.34-1-.5-1.41.22-.46.45-.9.7-1.32" transform="translate(-3.54 -7)"/><path class="cls-11" d="M59.43,75.2c2.8-3.66,6.92-5.72,12.14-6.43" transform="translate(-3.54 -7)"/><path class="cls-3" d="M72.58,68.65q.73-.08,1.5-.12l1,1.14" transform="translate(-3.54 -7)"/><path class="cls-12" d="M76.35,71.15c8,8.88,31.26,31.34,65.51,32.41,8.26.26,27.94.59,46.76-12.76A71.53,71.53,0,0,0,212,62.31" transform="translate(-3.54 -7)"/><text class="cls-13" transform="translate(64.63 171.87)">gusti</text></svg>
